<svg xmlns="http://www.w3.org/2000/svg" version="1.1" width="1077" height="1648" viewBox="0 0 1077 1648"><path d="M550 35L554.83 87L561.83 160L579.83 350L597.83 540L604.831 615L608 648C617.484 645.209 622.774 637.511 629.514 630.884C638.473 622.075 647.916 613.722 657 605.039C694.329 569.36 732.675 534.728 770 499.039C781.497 488.046 793.068 476.81 805 466.286C808.767 462.963 817.439 457.463 817.887 452C818.116 449.198 815.577 446.238 814.192 444C810.238 437.611 806.107 431.325 802.05 425C786.218 400.314 769.987 375.857 754.424 351C707.972 276.806 660.187 203.292 612.344 130C598.913 109.425 585.461 88.8215 572.424 68C565.903 57.5841 559.366 42.9691 550 35z" fill="black" id="region_1" data-region-id="1" data-number="1" class="whitespace-area" style="cursor: pointer; fill-opacity: 0.2; stroke: #007bff; stroke-width: 2px;" /><path d="M526 37L458.139 142L328.308 344L277.414 423L264.576 443L260.113 452L273 466.039L309.001 500.011L416.285 600.464L448 630.039L470 649L475.09 595L482.17 520L512.17 204L523.17 88L526.17 56L526 37z" fill="black" id="region_2" data-region-id="2" data-number="2" class="whitespace-area" style="cursor: pointer; fill-opacity: 0.2; stroke: #007bff; stroke-width: 2px;" /><path d="M538 53L535.17 86L527.17 171L506.17 392L484.17 623L477.17 698L475 722C481.85 720.391 487.732 715.403 494 712.27C505.424 706.559 520.164 700.409 533 699.515C550.778 698.276 567.907 703.726 584 710.862C590.402 713.701 596.135 718.429 603 720L600.714 695L593.83 623L575.83 433L549.83 158L542.83 84L540 53L538 53z" fill="black" id="region_3" data-region-id="3" data-number="3" class="whitespace-area" style="cursor: pointer; fill-opacity: 0.2; stroke: #007bff; stroke-width: 2px;" /><path d="M248 468L231.053 495L195.053 551L81.3079 728L44.6566 785L25 817L91 803.803L256 770.803L345 753.001L392 743L373.297 707L340.308 643L250 468L248 468z" fill="black" id="region_4" data-region-id="4" data-number="4" class="whitespace-area" style="cursor: pointer; fill-opacity: 0.2; stroke: #007bff; stroke-width: 2px;" /><path d="M828 468L791.258 539L733.692 651L701.753 713L687 744L936 793.449L1021 810.611L1053 817L1032.86 784L991.05 719L886.459 556L851.657 502L830 468L828 468z" fill="black" id="region_5" data-region-id="5" data-number="5" class="whitespace-area" style="cursor: pointer; fill-opacity: 0.2; stroke: #007bff; stroke-width: 2px;" /><path d="M270 480C272.237 487.766 277.067 494.83 280.742 502C288.778 517.676 296.748 533.382 304.895 549C326.573 590.56 346.945 632.951 369.565 674C378.303 689.858 386.054 706.241 395 722C397.893 727.097 400.442 735.863 405.379 739.306C408.836 741.718 415.225 738.912 419 738.25C428.684 736.552 438.396 734.531 448 732.424C451.846 731.581 457.461 731.512 460.682 729.062C464.862 725.882 463.758 715.73 464.09 711C465.247 694.485 473.429 671.827 461.195 658.171C452.709 648.698 442.218 640.666 432.985 631.91C407.115 607.375 380.82 583.301 354.91 558.816C338.333 543.149 321.406 527.807 304.996 511.961C293.842 501.189 282.743 488.871 270 480z" fill="black" id="region_6" data-region-id="6" data-number="6" class="whitespace-area" style="cursor: pointer; fill-opacity: 0.2; stroke: #007bff; stroke-width: 2px;" /><path d="M807 480L711 570.004L651 626.17L625 650.83L611.214 667L610.961 681L614 713L617.434 729.062L627 731.661L648 735.884L664 739.084L671.815 739.672L681.54 725L703.861 683L779.858 536L800.142 497L807 480z" fill="black" id="region_7" data-region-id="7" data-number="7" class="whitespace-area" style="cursor: pointer; fill-opacity: 0.2; stroke: #007bff; stroke-width: 2px;" /><path d="M537 711.507C483.116 719.205 431.484 767.181 429.039 823C426.884 872.228 456.695 915.175 501 935.305C512.936 940.728 529.554 948.293 543 946.707C604.796 939.415 656.219 883.86 651.911 821C648.859 776.48 615.937 738.658 576 721.579C567.473 717.932 558.992 715.764 550 713.664C545.698 712.66 541.507 710.863 537 711.507z" fill="black" id="region_8" data-region-id="8" data-number="8" class="whitespace-area" style="cursor: pointer; fill-opacity: 0.2; stroke: #007bff; stroke-width: 2px;" /><path d="M35 827L35 828L128 848.014L294 883.662L398 906.014L451 917C448.374 911.361 443.391 907.043 439.745 902C433.711 893.652 428.328 884.567 424.453 875C412.828 846.303 412.511 811.415 425.312 783C431.84 768.508 441.347 757.083 450 744L415 750.999L342 765.6L125 809L35 827z" fill="black" id="region_9" data-region-id="9" data-number="9" class="whitespace-area" style="cursor: pointer; fill-opacity: 0.2; stroke: #007bff; stroke-width: 2px;" /><path d="M633 745C635.346 750.55 639.565 755.06 642.974 760C648.2 767.572 652.859 775.405 656.189 784C668.32 815.313 668.875 851.434 653.63 882C647.437 894.415 637.827 904.176 631 916L666 909.004L750 891.003L1044 828L1044 827L996 817.449L921 802.449L633 745z" fill="black" id="region_10" data-region-id="10" data-number="10" class="whitespace-area" style="cursor: pointer; fill-opacity: 0.2; stroke: #007bff; stroke-width: 2px;" /><path d="M30 839C32.7022 850.505 43.2448 862.147 49.6566 872C63.7121 893.598 77.4093 915.423 91.4954 937C125.278 988.747 158.23 1041.05 191.692 1093C204.795 1113.34 218.088 1133.57 231.053 1154C236.68 1162.87 243.508 1171.51 248 1181L250 1181L274.781 1133L339.258 1008L369.297 950L386 916L354 908.79L292 895.576L116 857.499L30 839z" fill="black" id="region_11" data-region-id="11" data-number="11" class="whitespace-area" style="cursor: pointer; fill-opacity: 0.2; stroke: #007bff; stroke-width: 2px;" /><path d="M1047 839L1015 846.211L963 857.286L846 882.449L744 904.424L693 915L705.742 944L733.062 997L828 1181L830 1181L846.947 1154L882.308 1099L993.576 926L1034 863L1044.21 847L1047 839z" fill="black" id="region_12" data-region-id="12" data-number="12" class="whitespace-area" style="cursor: pointer; fill-opacity: 0.2; stroke: #007bff; stroke-width: 2px;" /><path d="M270 1169C282.86 1160.21 293.765 1147.78 305 1137.04C320.828 1121.9 336.973 1107.02 353 1092.09C375.052 1071.55 396.659 1050.38 419 1030.17C428.812 1021.29 438.319 1012.11 448 1003.09C452.174 999.201 456.941 995.76 460.682 991.424C464.461 987.045 462.391 981.137 461.59 976C459.992 965.744 459.81 955.3 458.424 945C457.908 941.159 458.657 933.893 455.4 931.14C452.232 928.461 445.916 928.617 442 927.789C431.982 925.671 422.033 923.238 412 921.199C408.352 920.458 402.07 917.692 398.637 920.032C393.927 923.241 391.301 933.052 388.703 938C381.035 952.604 373.904 967.541 365.975 982C344.702 1020.79 325.706 1060.86 305.059 1100C296.831 1115.6 288.64 1131.23 280.753 1147C277.144 1154.22 272.396 1161.28 270 1169z" fill="black" id="region_13" data-region-id="13" data-number="13" class="whitespace-area" style="cursor: pointer; fill-opacity: 0.2; stroke: #007bff; stroke-width: 2px;" /><path d="M808 1169L796.781 1146L778.258 1110L715.247 988L690 939L679.363 920.032L666 921.199L636 927.789L622.603 931.164L619.831 945L616.424 977L617.322 991.41L644.039 1016.09L722 1089.09L785 1148.17L808 1169z" fill="black" id="region_14" data-region-id="14" data-number="14" class="whitespace-area" style="cursor: pointer; fill-opacity: 0.2; stroke: #007bff; stroke-width: 2px;" /><path d="M469 933L485.831 1093L517.169 1400L531.17 1537L538 1606L540 1606L542.83 1577L549.714 1510L564.83 1363L589.83 1121L609 935C603.03 937.26 597.707 941.189 592 944.077C575.379 952.487 555.073 961.273 536 959.636C521.043 958.352 505.264 952.292 492 945.525C484.407 941.651 477.029 935.658 469 933z" fill="black" id="region_15" data-region-id="15" data-number="15" class="whitespace-area" style="cursor: pointer; fill-opacity: 0.2; stroke: #007bff; stroke-width: 2px;" /><path d="M513 1336L513 1342L514 1342L513 1336z" fill="black" id="region_16" data-region-id="16" data-number="16" class="whitespace-area" style="cursor: pointer; fill-opacity: 0.2; stroke: #007bff; stroke-width: 2px;" /><path d="M527 1612L522.17 1564L511.17 1457L477.83 1130L469.834 1054L465 1005L447 1019.91L416 1048.91L307 1151L272 1183.91L260.113 1197L264.576 1206L276.667 1225L322.343 1296L465.772 1519L506.947 1583L519.053 1602L527 1612z" fill="black" id="region_17" data-region-id="17" data-number="17" class="whitespace-area" style="cursor: pointer; fill-opacity: 0.2; stroke: #007bff; stroke-width: 2px;" /><path d="M614 1005L610.83 1031L605.831 1080L590.831 1226L562.83 1497L551 1612L571.003 1583L614.692 1515L753.003 1300L801.808 1224L814.053 1205L817.887 1197L805 1182.96L768.999 1148.99L677 1062.96L633 1021.71L614 1005z" fill="black" id="region_18" data-region-id="18" data-number="18" class="whitespace-area" style="cursor: pointer; fill-opacity: 0.2; stroke: #007bff; stroke-width: 2px;" /></svg>